<?xml version="1.0" encoding="utf-8"?>
<!-- Generator: Adobe Illustrator 24.3.0, SVG Export Plug-In . SVG Version: 6.00 Build 0)  -->
<svg version="1.1" id="Layer_1" xmlns="http://www.w3.org/2000/svg" xmlns:xlink="http://www.w3.org/1999/xlink" x="0px" y="0px"
	 viewBox="0 0 192.2 43.1" style="enable-background:new 0 0 192.2 43.1;" xml:space="preserve">
<style type="text/css">
	.st0{fill:#FFFFFF;}
</style>
<g>
	<g>
		<path class="st0" d="M59.4,13.1c0,2.4-0.8,4.4-2.3,6c-0.8,0.8-1.7,1.4-2.8,1.8c-1.2,0.5-2.5,0.7-4.1,0.6l-3.7-0.1
			c-1,0-1.9,0-2.5,0.1l-0.1-0.1v-0.3l0.1-0.1c0.5-0.3,0.8-0.5,0.8-0.6c0.1-0.1,0.1-0.6,0.1-1.4l0-2.4v-5.4c0-1.7,0-2.8-0.1-3.3
			c0-0.2-0.2-0.3-0.4-0.4c-0.1,0-0.5-0.1-1.2-0.1L43,7.3V6.6l0.1-0.1c0.8,0,1.5,0.1,2.1,0.1c1.6,0,3.1,0,4.5-0.1c0.7,0,1.3,0,2,0
			c1.8,0,3.3,0.2,4.2,0.6c1.1,0.5,1.9,1.2,2.5,2.2C59.1,10.3,59.4,11.6,59.4,13.1z M56.1,13.6c0-2-0.5-3.5-1.4-4.5
			c-0.5-0.6-1.1-0.9-1.9-1.2c-0.7-0.2-1.7-0.3-3-0.3c-0.7,0-1.3,0-1.9,0.1c-0.1,0.8-0.1,2.7-0.1,5.8l0,4.6c0,1,0,1.7,0.1,2.1
			c0.6,0.1,1.3,0.1,1.9,0.1c1.4,0,2.5-0.2,3.3-0.6c0.9-0.4,1.6-1.2,2.1-2.3C55.9,16.4,56.1,15.1,56.1,13.6z"/>
		<path class="st0" d="M73.1,21.4L73,21.5c-1.1,0-1.7-0.1-2-0.1c-0.2,0-0.6,0-1,0s-0.8,0-1,0l-0.1-0.1c0.1-0.6,0.1-1.1,0.1-1.7
			c-0.4,0.3-1,0.9-1.9,1.8c-0.5,0.2-1,0.3-1.5,0.3c-1,0-1.7-0.3-2.3-0.8c-0.6-0.5-0.8-1.3-0.8-2.2c0-0.1,0-0.4,0-0.8s0-0.8,0-1.1
			v-1.4c0-1.4-0.1-2.2-0.2-2.4c-0.1-0.1-0.2-0.2-0.5-0.3c-0.1,0-0.4,0-0.9-0.1l-0.1-0.1v-0.6l0.1-0.1c1.4-0.1,2.7-0.4,4.1-0.9
			l0.2,0.1c-0.1,1.2-0.1,2.3-0.1,3.3v2.1c0,1,0,1.6,0.1,2c0.1,0.4,0.2,0.7,0.5,1c0.3,0.2,0.6,0.3,1.1,0.3c0.6,0,1-0.2,1.5-0.5
			c0.4-0.4,0.6-0.8,0.6-1.2c0-0.3,0-0.6,0-0.6v-1.9c0-1.4-0.1-2.2-0.2-2.4c-0.1-0.1-0.2-0.2-0.4-0.3c-0.1,0-0.4,0-0.9-0.1l-0.1-0.1
			v-0.6l0.1-0.1c1.3-0.1,2.7-0.4,4.1-0.9l0.2,0.1c-0.1,1.1-0.1,2.1-0.1,3.3v3.3c0,1.5,0,2.3,0.1,2.5c0,0.1,0.1,0.2,0.2,0.2
			c0.2,0,0.5,0.1,1.1,0.1l0.1,0.1V21.4z"/>
		<path class="st0" d="M85.8,15.4c0,1.3-0.3,2.4-0.9,3.3c-0.3,0.4-0.5,0.7-0.7,0.8c-0.2,0.2-0.7,0.5-1.3,1c-0.1,0.1-0.5,0.4-1.2,0.8
			c-0.3,0.2-0.7,0.4-1.2,0.5c-0.3,0.1-0.6,0.1-0.9,0.1c-0.8,0-1.7-0.3-2.7-0.9l-1,0.8l-0.5-0.2c0.1-2.3,0.2-4.2,0.2-5.9v-4.2
			c0-0.4,0-1.2-0.1-2.6c0-0.4,0-0.7-0.1-1c0-0.4-0.2-0.6-0.6-0.6c-0.1,0-0.4,0-0.9-0.1L74,7.2V6.7l0.1-0.1c1.4-0.1,2.7-0.4,4.1-0.9
			l0.2,0.1c-0.1,2.6-0.1,4.7-0.1,6.1v1.1l1.3-1.1c0.6-0.5,1.4-0.8,2.2-0.8c1.7,0,2.9,0.7,3.6,2C85.7,13.9,85.8,14.6,85.8,15.4z
			 M83.1,16.6c0-1-0.2-1.9-0.7-2.5c-0.5-0.6-1.1-0.9-1.9-0.9c-0.5,0-0.9,0.1-1.3,0.4c-0.4,0.2-0.6,0.4-0.8,0.7v5
			c0.5,0.8,1.3,1.2,2.2,1.2c0.8,0,1.5-0.4,1.9-1.1C82.9,18.6,83.1,17.7,83.1,16.6z"/>
		<path class="st0" d="M97.3,21.4l-0.1,0.1c-0.6,0-1.3-0.1-2-0.1c-0.6,0-1.2,0-1.7,0.1l-0.1-0.1l0.1-1.4l-2.1,1.6
			c-0.2,0.1-0.4,0.2-0.7,0.2c-0.1,0-0.3,0-0.4,0c-0.8,0-1.4-0.2-1.8-0.7c-0.4-0.5-0.6-1.1-0.6-2c0-1.1,0.4-1.9,1.1-2.3
			c0.8-0.5,2.3-1,4.6-1.4c0-1.1-0.3-1.9-0.9-2.3c-0.4-0.2-0.8-0.4-1.3-0.4c-0.6,0-1,0.1-1.3,0.3l-0.4,1l-0.1,0.1l-0.5-0.1l-0.1-0.1
			l0.1-1.3c1.2-0.9,2-1.4,2.6-1.5c0.2,0,0.6-0.1,1-0.1c1.4,0,2.4,0.4,3,1.1c0.4,0.5,0.6,1.3,0.6,2.4c0,0.3,0,0.7,0,1.3
			c0,1-0.1,1.7-0.1,2c0,1.1,0,1.8,0.1,2c0,0.3,0.1,0.5,0.2,0.6c0.1,0.1,0.4,0.1,0.9,0.1l0.1,0.1V21.4z M93.4,18.9v-2.6
			c-1.2,0.3-2,0.5-2.4,0.8c-0.4,0.3-0.6,0.7-0.6,1.3c0,1,0.4,1.4,1.3,1.4C92.4,19.9,93,19.6,93.4,18.9z"/>
		<path class="st0" d="M104.4,21.4l-0.1,0.1c-0.7,0-1.6-0.1-2.9-0.1s-2.2,0-2.9,0.1l-0.1-0.1v-0.6l0.1-0.1c0.7,0,1.1-0.1,1.3-0.2
			c0.1-0.1,0.2-0.2,0.2-0.5c0-0.9,0.1-1.9,0.1-3v-1.5c0-1.4-0.1-2.2-0.2-2.4c-0.1-0.1-0.2-0.2-0.5-0.3c-0.1,0-0.4,0-0.9-0.1
			l-0.1-0.1v-0.6l0.1-0.1c1.4-0.1,2.7-0.4,4.1-0.9l0.2,0.1c-0.1,1.3-0.1,2.4-0.1,3.3v3.4c0,0.5,0,1.2,0.1,2.2c0,0.3,0.1,0.4,0.2,0.5
			c0.2,0.1,0.6,0.1,1.3,0.2l0.1,0.1V21.4z M103,7.6c0,0.5-0.2,0.8-0.5,1.2c-0.3,0.3-0.7,0.5-1.1,0.5c-0.5,0-0.8-0.2-1.2-0.5
			c-0.3-0.3-0.5-0.7-0.5-1.2c0-0.5,0.2-0.9,0.5-1.2s0.7-0.5,1.2-0.5c0.4,0,0.8,0.2,1.1,0.5C102.8,6.7,103,7.1,103,7.6z"/>
		<path class="st0" d="M118.1,21.4l-0.1,0.1c-0.7,0-1.8-0.1-3.3-0.1c-1.5,0-2.6,0-3.3,0.1l-0.1-0.1v-0.7l0.1-0.1
			c0.7,0,1.1-0.1,1.2-0.1c0.2-0.1,0.3-0.2,0.4-0.4c0.1-0.5,0.1-1.6,0.1-3.3v-5.6c0-1.7,0-2.8-0.1-3.3c0-0.2-0.2-0.3-0.4-0.4
			c-0.1,0-0.5-0.1-1.2-0.1l-0.1-0.1V6.6l0.1-0.1c0.7,0,1.8,0.1,3.3,0.1c1.5,0,2.6,0,3.3-0.1l0.1,0.1v0.7L118,7.4
			c-0.7,0-1.1,0.1-1.2,0.1c-0.2,0.1-0.3,0.2-0.4,0.4c-0.1,0.5-0.1,1.6-0.1,3.3v5.6c0,1.7,0,2.8,0.1,3.3c0,0.2,0.2,0.3,0.4,0.4
			c0.1,0,0.5,0.1,1.2,0.1l0.1,0.1V21.4z"/>
		<path class="st0" d="M131.8,21.4l-0.1,0.1c-0.8,0-1.4-0.1-2-0.1c-0.5,0-1.2,0-2.2,0.1l-0.1-0.1c0.1-1.6,0.2-2.8,0.2-3.7v-2.1
			c0-1.7-0.6-2.6-1.9-2.6c-0.7,0-1.2,0.2-1.5,0.7c-0.3,0.4-0.5,0.8-0.5,1.1v2c0,1.8,0,3,0.1,3.4c0.1,0.2,0.5,0.4,1.2,0.4l0.1,0.1
			v0.6l-0.1,0.1c-0.6,0-1.5-0.1-2.7-0.1c-1.3,0-2.2,0-2.9,0.1l-0.1-0.1v-0.6l0.1-0.1c0.7,0,1.1-0.1,1.3-0.2c0.1-0.1,0.2-0.2,0.2-0.5
			c0-0.9,0.1-1.9,0.1-3v-1.5c0-1.4-0.1-2.2-0.2-2.4c-0.1-0.1-0.2-0.2-0.5-0.3c-0.1,0-0.4,0-0.9-0.1l-0.1-0.1v-0.6l0.1-0.1
			c1.3-0.1,2.6-0.4,4-0.9l0.2,0.1l0,1.8l1.8-1.5c0.5-0.2,1-0.3,1.5-0.3c1.1,0,2,0.3,2.5,1c0.5,0.6,0.7,1.4,0.7,2.4
			c0,0.1,0,0.6,0,1.5s0,1.5,0,1.8c0,1.1,0,1.8,0.1,2s0.1,0.5,0.2,0.6c0.1,0.1,0.5,0.1,1.1,0.1l0.1,0.1V21.4z"/>
		<path class="st0" d="M144.1,12.2l-0.1,0.1c-0.4,0-0.7,0.1-0.8,0.2c-0.1,0.1-0.2,0.2-0.4,0.5s-0.4,0.8-0.8,1.7l-2,4.7
			c-0.1,0.2-0.4,0.9-0.9,2.3h-1.9c-0.4-1.1-0.8-2.3-1.3-3.4c-0.7-1.9-1.4-3.5-1.9-4.8c-0.2-0.6-0.5-0.9-0.8-1
			c-0.2-0.1-0.4-0.1-0.6-0.1l-0.1-0.1v-0.6l0.1-0.1c0.7,0,1.6,0,2.8,0c1.1,0,1.9,0,2.6,0l0.1,0.1v0.6l-0.1,0.1c-0.5,0-0.9,0-1,0.1
			c-0.2,0-0.2,0.1-0.2,0.3c0,0.2,0.4,1.4,1.3,3.7c0.5,1.2,0.8,2,0.9,2.3c0.5-1.1,0.9-2.1,1.3-3.1c0.7-1.7,1-2.6,1-2.9
			c0-0.1-0.1-0.2-0.2-0.3c-0.1,0-0.5-0.1-1-0.1l-0.1-0.1v-0.6l0.1-0.1c0.5,0,1.2,0,1.9,0c0.8,0,1.5,0,2.1,0l0.1,0.1V12.2z"/>
		<path class="st0" d="M154,15.5c0,0.1,0,0.3,0,0.5l-0.1,0.1c-0.9,0.3-2.2,0.4-3.7,0.4c-0.3,0-0.7,0-1.3,0c-0.6,0-1,0-1.3,0
			c0,1,0.4,1.9,1,2.6c0.6,0.7,1.5,1.1,2.5,1.1c0.7,0,1.5-0.2,2.4-0.7l0.3,0.3l-0.5,1.1c-1,0.7-2.2,1-3.4,1c-1.6,0-2.8-0.4-3.7-1.3
			c-0.9-0.9-1.3-2.2-1.3-3.8c0-2,0.5-3.3,1.4-4.1c1.3-1,2.5-1.5,3.7-1.5c1.3,0,2.2,0.4,2.9,1.1C153.7,13,154,14.1,154,15.5z
			 M151.3,15.2c0-1.9-0.6-2.9-1.8-2.9c-1.3,0-1.9,0.9-1.9,2.8v0.2c0.4,0.1,1.1,0.1,2.2,0.1c0.5,0,1,0,1.5-0.1
			C151.3,15.4,151.3,15.3,151.3,15.2z"/>
		<path class="st0" d="M163.7,18.1c0,1.1-0.4,2.1-1.3,2.8c-0.9,0.7-2,1-3.4,1c-1,0-2-0.2-3.2-0.6l-0.1-0.2c0.1-0.7,0.1-1.2,0.1-1.5
			l0.1-1.3l0.1-0.1h0.6l0.1,0.1c0,0.8,0.1,1.3,0.1,1.4c0.6,0.8,1.4,1.2,2.4,1.2c0.6,0,1.1-0.2,1.5-0.5c0.4-0.3,0.6-0.7,0.6-1.2
			c0-0.6-0.3-1.1-0.8-1.3c-0.2-0.1-0.7-0.2-1.4-0.4c-1.2-0.2-1.9-0.5-2.3-0.8c-0.6-0.5-0.9-1.2-0.9-2.1c0-1,0.4-1.9,1.1-2.5
			c0.8-0.7,1.8-1,3.2-1c1.1,0,2.1,0.2,2.8,0.6l0.1,0.2c-0.1,0.3-0.1,1.1-0.2,2.5l-0.1,0.1h-0.6l-0.1-0.1c0-0.5-0.1-0.9-0.1-1.2
			c-0.4-0.6-1.1-0.8-1.9-0.8c-0.6,0-1,0.1-1.4,0.4c-0.4,0.3-0.5,0.6-0.5,1.1c0,0.6,0.3,1,0.9,1.2c0.3,0.1,0.8,0.2,1.6,0.4
			c1.2,0.2,2,0.5,2.4,0.8C163.4,16.5,163.7,17.2,163.7,18.1z"/>
		<path class="st0" d="M171.5,20.1c0,0.1-0.2,0.2-0.5,0.4c-0.4,0.4-0.8,0.8-1.1,1.1c-0.3,0.1-0.7,0.2-1.1,0.2c-1,0-1.7-0.3-2.2-0.9
			c-0.2-0.2-0.3-0.5-0.4-0.9c-0.1-0.4-0.1-0.9-0.1-1.5l0-2.5v-2.7h-0.3l-0.6,0h-0.4l-0.1-0.1V13l0.1-0.2c0.1-0.1,0.3-0.2,0.6-0.4
			c0.3-0.2,0.6-0.4,0.7-0.5v-1.4c0-0.6,0-1.2-0.1-1.9c0.5-0.2,1-0.3,1.3-0.5s0.8-0.3,1.4-0.6l0.3,0.2c-0.1,0.9-0.1,1.7-0.2,2.4
			l-0.1,1.8h0.4c0.8,0,1.4,0,2-0.1l0.1,0.1l-0.1,1.2l-0.1,0.1h-2.2v3.6c0,1.2,0,1.8,0,2c0,0.3,0.2,0.5,0.4,0.7
			c0.2,0.2,0.5,0.3,0.9,0.3c0.3,0,0.6-0.1,1.1-0.2L171.5,20.1z"/>
		<path class="st0" d="M182.9,16.2c0,2.5-0.8,4.2-2.5,5.1c-0.8,0.4-1.8,0.6-2.8,0.6c-1.6,0-2.9-0.5-3.7-1.4c-0.9-0.9-1.3-2.3-1.3-4
			c0-2.4,0.8-4,2.5-4.9c0.8-0.4,1.8-0.6,2.8-0.6c2.3,0,3.8,0.8,4.5,2.3C182.7,14.1,182.9,15.1,182.9,16.2z M180,17.1
			c0-1.8-0.2-3-0.6-3.8c-0.4-0.8-1-1.1-1.8-1.1c-1.4,0-2.1,1.3-2.1,3.8c0,3.3,0.8,4.9,2.4,4.9c1,0,1.6-0.5,1.9-1.6
			C179.9,18.7,180,18,180,17.1z"/>
		<path class="st0" d="M192.2,11.2l-0.1,1.9c0,0.3,0,0.7,0,1.1l-0.4,0.1c-0.3-0.5-0.8-0.7-1.4-0.7c-0.5,0-1,0.2-1.3,0.6
			c-0.2,0.3-0.3,0.6-0.3,1.2v2.5c0,0.5,0,1.2,0.1,2.2c0,0.3,0.1,0.4,0.2,0.5c0.1,0.1,0.6,0.1,1.5,0.2l0.1,0.1v0.6l-0.1,0.1
			c-1,0-2.1-0.1-3.1-0.1c-1.3,0-2.2,0-2.9,0.1l-0.1-0.1v-0.6l0.1-0.1c0.7,0,1.1-0.1,1.3-0.2c0.1-0.1,0.2-0.2,0.2-0.5
			c0-0.9,0.1-1.9,0.1-3v-1.5c0-1.4-0.1-2.2-0.2-2.4c-0.1-0.1-0.2-0.2-0.5-0.3c-0.1,0-0.4,0-0.9-0.1l-0.1-0.1v-0.6l0.1-0.1
			c1.3-0.1,2.6-0.4,4-0.9l0.2,0.1l0,2.1c0.4-0.5,1-1.1,1.6-1.8c0.3-0.3,0.7-0.4,1.2-0.4C191.8,11.1,192,11.1,192.2,11.2z"/>
	</g>
	<g>
		<path class="st0" d="M48,35.6l-1.1-1.9c-0.1,0-0.1,0-0.2,0h-1.4v1.9h-1.2v-6.3h2.6c1.6,0,2.6,0.8,2.6,2.2c0,1-0.4,1.7-1.3,2
			l1.4,2.1H48z M45.3,32.7h1.4c0.9,0,1.4-0.4,1.4-1.2c0-0.8-0.5-1.2-1.4-1.2h-1.4V32.7z"/>
		<path class="st0" d="M59,29.3v1.1h-3.4v1.6h3.1V33h-3.1v1.6h3.5v1.1h-4.7v-6.3H59z"/>
		<path class="st0" d="M68.2,34.3h-3.1l-0.6,1.3h-1.3l2.8-6.3h1.3l2.7,6.3h-1.3L68.2,34.3z M67.8,33.2l-1.1-2.6l-1.1,2.6H67.8z"/>
		<path class="st0" d="M75.9,29.3v5.2h2.7v1.1h-3.9v-6.3H75.9z"/>
		<path class="st0" d="M91.9,30.3c-0.6,0-0.9,0.2-0.9,0.6c0,1.3,3.4,0.6,3.4,2.8c0,1.2-1,1.9-2.4,1.9c-1,0-2-0.4-2.7-1l0.5-1
			c0.6,0.6,1.5,0.9,2.2,0.9c0.7,0,1.1-0.3,1.1-0.7c0-1.3-3.4-0.6-3.4-2.8c0-1.1,0.9-1.8,2.4-1.8c0.8,0,1.7,0.3,2.3,0.7l-0.5,1
			C93.1,30.5,92.4,30.3,91.9,30.3z"/>
		<path class="st0" d="M103.7,29.3v1.1h-2v5.2h-1.2v-5.2h-2v-1.1H103.7z"/>
		<path class="st0" d="M111.8,34.3h-3.1l-0.6,1.3h-1.3l2.8-6.3h1.3l2.7,6.3h-1.3L111.8,34.3z M111.4,33.2l-1.1-2.6l-1.1,2.6H111.4z"
			/>
		<path class="st0" d="M122,29.3v1.1h-2v5.2h-1.2v-5.2h-2v-1.1H122z"/>
		<path class="st0" d="M131.3,29.3v1.1h-3.4v1.6h3.1V33h-3.1v1.6h3.5v1.1h-4.7v-6.3H131.3z"/>
		<path class="st0" d="M147.2,32.5h1.1v2.4c-0.6,0.5-1.6,0.8-2.5,0.8c-1.9,0-3.3-1.4-3.3-3.2c0-1.8,1.5-3.2,3.4-3.2
			c0.9,0,1.8,0.4,2.5,0.9l-0.7,0.9c-0.5-0.4-1.1-0.7-1.8-0.7c-1.2,0-2.2,0.9-2.2,2.1c0,1.2,1,2.1,2.2,2.1c0.4,0,0.9-0.2,1.4-0.4
			V32.5z"/>
		<path class="st0" d="M157.4,35.6l-1.1-1.9c-0.1,0-0.1,0-0.2,0h-1.4v1.9h-1.2v-6.3h2.6c1.6,0,2.6,0.8,2.6,2.2c0,1-0.4,1.7-1.3,2
			l1.4,2.1H157.4z M154.7,32.7h1.4c0.9,0,1.4-0.4,1.4-1.2c0-0.8-0.5-1.2-1.4-1.2h-1.4V32.7z"/>
		<path class="st0" d="M170,32.4c0,1.8-1.5,3.2-3.4,3.2c-1.9,0-3.4-1.4-3.4-3.2c0-1.8,1.5-3.2,3.4-3.2C168.5,29.3,170,30.6,170,32.4
			z M164.5,32.4c0,1.2,1,2.1,2.1,2.1c1.2,0,2.1-0.9,2.1-2.1c0-1.2-1-2.1-2.1-2.1C165.5,30.3,164.5,31.3,164.5,32.4z"/>
		<path class="st0" d="M177.5,34.6c1,0,1.6-0.6,1.6-1.6v-3.7h1.2V33c0,1.7-1.1,2.7-2.8,2.7c-1.7,0-2.8-1-2.8-2.7v-3.7h1.2V33
			C175.9,34,176.6,34.6,177.5,34.6z"/>
		<path class="st0" d="M190.6,31.5c0,1.4-0.9,2.3-2.5,2.3h-1.4v1.9h-1.2v-6.3h2.6C189.7,29.3,190.6,30.1,190.6,31.5z M189.4,31.5
			c0-0.8-0.5-1.2-1.4-1.2h-1.3v2.3h1.3C188.9,32.7,189.4,32.3,189.4,31.5z"/>
	</g>
</g>
<g>
	<path class="st0" d="M33.5,33.3c0,0-14,6.7-16,8.1L0,33.8c2.9,1.3,16,8.4,17.7,9.3C17.7,43.1,29.6,35.5,33.5,33.3z"/>
	<polygon class="st0" points="7.7,13.3 4.5,16.5 4.5,34.7 7.7,35.9 	"/>
	<polygon class="st0" points="22.6,4.5 18.3,0.3 18.3,39.4 22.6,37.3 	"/>
	<polygon class="st0" points="16.6,0 9.6,7 9.6,36.6 16.6,39.3 	"/>
	<polygon class="st0" points="27.3,16.5 27.2,16.5 24.1,13.3 24.1,36.6 27.3,35.1 	"/>
</g>
</svg>
